<?xml version="1.0" encoding="UTF-8" standalone="no"?>
<svg width="237px" height="26px" viewBox="0 0 237 26" version="1.1" xmlns="http://www.w3.org/2000/svg" xmlns:xlink="http://www.w3.org/1999/xlink">
    <!-- Generator: Sketch 43.2 (39069) - http://www.bohemiancoding.com/sketch -->
    <title>logo</title>
    <desc>Created with Sketch.</desc>
    <defs></defs>
    <g id="Page-1" stroke="none" stroke-width="1" fill="none" fill-rule="evenodd">
        <g id="logo" fill-rule="nonzero" fill="#FFFFFF">
            <g id="Group" transform="translate(106.217587, 7.430859)">
                <g id="Shape" transform="translate(20.107033, 0.437110)">
                    <path d="M9.96609453,3.75914093 C9.96609453,2.18554705 9.44156324,1.13648446 8.43621161,0.568242232 C7.91168031,0.262265646 7.12488337,0.131132822 6.0758208,0.131132822 L0.874218819,0.131132822 C0.874218819,0.131132822 0.568242232,2.05441423 2.6663674,2.05441423 L5.11418009,2.05441423 C6.03210984,2.05441423 6.64406303,2.18554705 6.95003961,2.44781269 C7.2560162,2.71007834 7.43085996,3.19089869 7.43085996,3.93398469 L4.06511751,3.93398469 C2.75378928,3.93398469 1.79214858,4.15253939 1.1801954,4.63335974 C0.568242232,5.11418009 0.262265646,5.85726608 0.262265646,6.95003961 C0.262265646,7.82425843 0.524531291,8.52363349 1.04906258,9.04816478 C1.57359388,9.57269607 2.27296893,9.79125077 3.23460963,9.79125077 L10.0098055,9.79125077 L10.0098055,3.75914093 L9.96609453,3.75914093 Z M4.23996127,7.95539125 C3.80285187,7.95539125 3.45316433,7.86796937 3.23460963,7.6931256 C3.01605492,7.51828184 2.8849221,7.2560162 2.8849221,6.90632867 C2.8849221,6.46921926 3.05976586,6.16324268 3.36574245,5.9883989 C3.58429715,5.90097702 3.93398469,5.85726608 4.45851598,5.85726608 L7.4745709,5.85726608 L7.4745709,7.99910219 L4.23996127,7.99910219 L4.23996127,7.95539125 Z"></path>
                    <path d="M22.161447,9.79125077 C22.161447,9.79125077 19.6699234,10.0535164 19.6699234,7.82425843 C19.6262125,5.59500044 19.6699234,3.97769563 19.6699234,3.97769563 L19.6699234,3.67171903 C19.6699234,3.23460963 19.5825016,2.92863304 19.4513687,2.71007834 C19.189103,2.40410175 18.7082827,2.22925799 17.9651967,2.22925799 L15.9107825,2.22925799 L15.9107825,9.74753983 L13.4192589,9.74753983 L13.4192589,0.174843764 L18.1400405,0.174843764 C19.5387906,0.174843764 20.5004313,0.393398469 21.1123844,0.830507877 C21.8117595,1.35503916 22.161447,2.31667987 22.161447,3.71542997 L22.161447,9.79125077 L22.161447,9.79125077 Z"></path>
                    <path d="M34.4005105,6.64406303 C34.4005105,7.60570372 34.1819558,8.39250067 33.7011355,8.9607429 C33.2203151,9.52898513 32.6083619,9.83496171 31.7778541,9.83496171 L25.221213,9.83496171 C25.221213,9.83496171 25.0900801,7.91168031 27.0133615,7.91168031 L30.5976586,7.91168031 C31.5155884,7.91168031 31.9964087,7.56199278 31.9964087,6.90632867 C31.9964087,6.25066456 31.5155884,5.94468796 30.5976586,5.94468796 L28.4121116,5.94468796 L27.8875803,5.94468796 C27.1444944,5.94468796 26.5762521,5.81355514 26.1391427,5.5512895 C25.4834786,5.11418009 25.1337911,4.3710941 25.1337911,3.27832057 C25.1337911,1.22390635 26.2702754,0.218554705 28.4995335,0.218554705 L33.8759792,0.218554705 C33.8759792,0.218554705 34.2256668,2.14183611 32.3898073,2.14183611 C30.5539477,2.18554705 29.0677758,2.14183611 29.0677758,2.14183611 C28.1498459,2.14183611 27.7127365,2.40410175 27.7127365,2.97234398 L27.7127365,3.1034768 C27.7564475,3.67171903 28.1935569,3.93398469 28.9366429,3.93398469 L31.2533228,3.93398469 C32.2149635,3.93398469 32.9143385,4.10882845 33.4388698,4.41480504 C34.0945339,4.89562538 34.4005105,5.59500044 34.4005105,6.64406303"></path>
                </g>
                <g id="Shape">
                    <polygon points="0.0874218819 0.611953174 1.87957046 0.611953174 4.8082035 5.15789103 7.73683654 0.611953174 9.52898513 0.611953174 9.52898513 10.2283602 7.82425843 10.2283602 7.82425843 3.32203151 4.8082035 7.86796937 4.76449256 7.86796937 1.74843764 3.36574245 1.74843764 10.2283602 0.0874218819 10.2283602"></polygon>
                    <polygon points="11.6271103 0.611953174 18.7519936 0.611953174 18.7519936 2.14183611 13.331837 2.14183611 13.331837 4.63335974 18.1400405 4.63335974 18.1400405 6.11953174 13.331837 6.11953174 13.331837 8.69847725 18.8394155 8.69847725 18.8394155 10.2283602 11.6708212 10.2283602 11.6708212 0.611953174"></polygon>
                    <path d="M60.4522313,0.611953174 L64.7796145,0.611953174 C65.872388,0.611953174 66.7466068,0.91792976 67.2711381,1.44246106 C67.7082475,1.87957046 67.9268022,2.40410175 67.9268022,3.01605492 L67.9268022,3.05976586 C67.9268022,4.19625033 67.2711381,4.8082035 66.571763,5.20160197 C67.7082475,5.59500044 68.4950444,6.25066456 68.4950444,7.51828184 L68.4950444,7.56199278 C68.4950444,9.26671948 67.0962943,10.1846492 64.9544583,10.1846492 L60.4959422,10.1846492 L60.4959422,0.611953174 L60.4522313,0.611953174 Z M64.429927,4.67707068 C65.5227004,4.67707068 66.2220755,4.23996127 66.2220755,3.36574245 L66.2220755,3.32203151 C66.2220755,2.57894551 65.6101223,2.09812517 64.5173489,2.09812517 L62.0695362,2.09812517 L62.0695362,4.63335974 L64.429927,4.63335974 L64.429927,4.67707068 Z M64.9107473,8.74218819 C66.0472317,8.74218819 66.7466068,8.30507877 66.7466068,7.43085996 L66.7466068,7.38714902 C66.7466068,6.55664114 66.0909427,6.11953174 64.7796145,6.11953174 L62.1132471,6.11953174 L62.1132471,8.74218819 L64.9107473,8.74218819 Z"></path>
                    <path d="M69.8500836,6.16324268 L69.8500836,0.611953174 L71.5548104,0.611953174 L71.5548104,6.0758208 C71.5548104,7.86796937 72.4727401,8.82961007 74.0026231,8.82961007 C75.488795,8.82961007 76.4067247,7.91168031 76.4067247,6.16324268 L76.4067247,0.611953174 L78.1114515,0.611953174 L78.1114515,6.0758208 C78.1114515,8.9607429 76.4941466,10.4032039 74.0026231,10.4032039 C71.4673884,10.359493 69.8500836,8.91703195 69.8500836,6.16324268 Z"></path>
                    <path d="M79.4227797,8.82961007 L80.4281313,7.60570372 C81.3460611,8.39250067 82.2639908,8.87332101 83.4441863,8.87332101 C84.4932488,8.87332101 85.148913,8.39250067 85.148913,7.64941466 L85.148913,7.60570372 C85.148913,6.90632867 84.7555145,6.55664114 82.963366,6.11953174 C80.9089517,5.63871138 79.7724672,5.02675821 79.7724672,3.23460963 L79.7724672,3.19089869 C79.7724672,1.52988294 81.1275063,0.393398469 83.0507877,0.393398469 C84.4495378,0.393398469 85.5423114,0.830507877 86.5476631,1.61730482 L85.6297333,2.8849221 C84.7555145,2.22925799 83.8812957,1.87957046 83.0070768,1.87957046 C82.0017252,1.87957046 81.433483,2.40410175 81.433483,3.01605492 L81.433483,3.05976586 C81.433483,3.80285187 81.8705924,4.10882845 83.7064519,4.5896488 C85.7171552,5.07046915 86.8099286,5.81355514 86.8099286,7.38714902 L86.8099286,7.43085996 C86.8099286,9.22300854 85.4111785,10.3157821 83.4004754,10.3157821 C81.9580143,10.359493 80.5592642,9.83496171 79.4227797,8.82961007 Z"></path>
                    <polygon points="88.6020773 0.611953174 90.306804 0.611953174 90.306804 10.2283602 88.6020773 10.2283602"></polygon>
                    <polygon points="92.492351 0.611953174 94.0659449 0.611953174 99.2238359 7.2560162 99.2238359 0.611953174 100.884852 0.611953174 100.884852 10.2283602 99.4861016 10.2283602 94.1970777 3.40945339 94.1970777 10.2283602 92.5360619 10.2283602 92.5360619 0.611953174"></polygon>
                    <polygon points="102.982977 0.611953174 110.10786 0.611953174 110.10786 2.14183611 104.687704 2.14183611 104.687704 4.63335974 109.495907 4.63335974 109.495907 6.11953174 104.687704 6.11953174 104.687704 8.69847725 110.151571 8.69847725 110.151571 10.2283602 102.982977 10.2283602"></polygon>
                    <path d="M111.200634,8.82961007 L112.205985,7.60570372 C113.123915,8.39250067 114.041845,8.87332101 115.22204,8.87332101 C116.271103,8.87332101 116.926767,8.39250067 116.926767,7.64941466 L116.926767,7.60570372 C116.926767,6.90632867 116.533369,6.55664114 114.74122,6.11953174 C112.686806,5.63871138 111.550321,5.02675821 111.550321,3.23460963 L111.550321,3.19089869 C111.550321,1.52988294 112.90536,0.393398469 114.828642,0.393398469 C116.227392,0.393398469 117.320165,0.830507877 118.325517,1.61730482 L117.407587,2.8849221 C116.533369,2.22925799 115.65915,1.87957046 114.784931,1.87957046 C113.779579,1.87957046 113.211337,2.40410175 113.211337,3.01605492 L113.211337,3.05976586 C113.211337,3.80285187 113.648446,4.10882845 115.484306,4.5896488 C117.495009,5.07046915 118.587783,5.81355514 118.587783,7.38714902 L118.587783,7.43085996 C118.587783,9.22300854 117.189033,10.3157821 115.178329,10.3157821 C113.735868,10.359493 112.337118,9.83496171 111.200634,8.82961007 Z"></path>
                    <path d="M119.462002,8.82961007 L120.467353,7.60570372 C121.385283,8.39250067 122.303213,8.87332101 123.483408,8.87332101 C124.532471,8.87332101 125.188135,8.39250067 125.188135,7.64941466 L125.188135,7.60570372 C125.188135,6.90632867 124.794737,6.55664114 123.002588,6.11953174 C120.948174,5.63871138 119.811689,5.02675821 119.811689,3.23460963 L119.811689,3.19089869 C119.811689,1.52988294 121.166728,0.393398469 123.09001,0.393398469 C124.48876,0.393398469 125.581533,0.830507877 126.586885,1.61730482 L125.668955,2.8849221 C124.794737,2.22925799 123.920518,1.87957046 123.046299,1.87957046 C122.040947,1.87957046 121.472705,2.40410175 121.472705,3.01605492 L121.472705,3.05976586 C121.472705,3.80285187 121.909814,4.10882845 123.745674,4.5896488 C125.756377,5.07046915 126.84915,5.81355514 126.84915,7.38714902 L126.84915,7.43085996 C126.84915,9.22300854 125.4504,10.3157821 123.439697,10.3157821 C122.040947,10.359493 120.642197,9.83496171 119.462002,8.82961007 Z"></path>
                    <polygon points="128.247901 8.34878971 130.08376 8.34878971 130.08376 10.2283602 128.247901 10.2283602"></polygon>
                </g>
            </g>
            <g id="Group">
                <path d="M25.920588,9.61640701 C25.920588,5.46386761 24.5218378,2.62265646 21.7680486,1.1801954 C20.3255875,0.393398469 18.2274623,0 15.4736731,0 L1.57359388,0 C1.57359388,0 0.786796937,5.15789103 6.38179738,5.15789103 C12.4139073,5.20160197 12.9384386,5.15789103 12.9384386,5.15789103 C15.3425403,5.15789103 17.003556,5.50757856 17.8340639,6.20695362 C18.6645718,6.90632867 19.1016812,8.21765689 19.1016812,10.1409383 L10.1409383,10.1409383 C6.60035208,10.1409383 4.02140657,10.7528915 2.40410175,11.9767978 C0.786796937,13.2444151 0,15.2988294 0,18.1400405 C0,20.5004313 0.699375055,22.3362908 2.05441423,23.69133 C3.40945339,25.0463692 5.37644573,25.7020333 7.86796937,25.7020333 L25.920588,25.7020333 L25.920588,9.61640701 Z M10.6217586,20.718986 C9.44156324,20.718986 8.56734443,20.5004313 7.91168031,20.0633219 C7.2560162,19.6262125 6.95003961,18.9268374 6.95003961,17.9214858 C6.95003961,16.6975795 7.38714902,15.8670715 8.21765689,15.4736731 C8.78589913,15.2114075 9.74753983,15.0802746 11.1462899,15.0802746 L19.1453922,15.0802746 L19.1453922,20.718986 L10.6217586,20.718986 Z" id="Shape"></path>
                <path d="M58.3541062,25.7020333 C58.3541062,25.7020333 51.7100432,26.4451193 51.6663322,20.5004313 C51.5789103,14.5994543 51.6663322,10.2283602 51.6663322,10.2283602 C51.6226213,9.87867265 51.6226213,9.61640701 51.6663322,9.44156324 C51.6663322,8.26136783 51.4477775,7.43085996 51.054379,6.90632867 C50.355004,6.03210984 49.0436757,5.59500044 47.0766833,5.59500044 L41.6565267,5.59500044 L41.6565267,25.6583224 L35.0998856,25.6583224 L35.0998856,0 L47.7323475,0 C51.4477775,0 54.070434,0.568242232 55.6003168,1.74843764 C57.4361764,3.14718774 58.3978172,5.72613326 58.3978172,9.3978523 L58.3978172,25.7020333 L58.3541062,25.7020333 Z" id="Shape"></path>
                <path d="M91.0498899,17.2221108 C91.0498899,19.8010562 90.4379368,21.8554705 89.2140304,23.4290643 C87.9901241,24.9589472 86.2853975,25.7020333 84.0998503,25.7020333 L66.615474,25.6583224 C66.615474,25.6583224 66.2657865,20.5004313 71.4673884,20.5004313 L80.9526626,20.5004313 C83.4004754,20.5004313 84.6243816,19.5825016 84.6243816,17.8340639 C84.6243816,16.0856263 83.4004754,15.2551184 80.9526626,15.2551184 L75.0516856,15.2551184 L73.6529354,15.2551184 C71.6859431,15.2551184 70.1123493,14.9054308 69.0195757,14.2060558 C67.2274272,13.0695713 66.3532084,11.0588681 66.3532084,8.13023501 C66.3532084,2.71007834 69.3255523,-7.10542736e-15 75.2702403,-7.10542736e-15 L89.563718,0.043710941 C89.563718,0.043710941 90.4379368,5.11418009 85.5860224,5.20160197 C80.7341079,5.28902385 76.7127014,5.20160197 76.7127014,5.20160197 C74.3085996,5.20160197 73.0846932,5.94468796 73.0846932,7.43085996 L73.0846932,7.82425843 C73.215826,9.31043042 74.3085996,10.0535164 76.3630139,10.0535164 L82.5699674,10.0535164 C85.105202,10.0535164 87.0284834,10.4906258 88.3835226,11.3648446 C90.1756711,12.5887509 91.0498899,14.5120324 91.0498899,17.2221108" id="Shape"></path>
            </g>
        </g>
    </g>
</svg>